<?xml version="1.0" encoding="UTF-8" standalone="no"?>
<!-- Created with Inkscape (http://www.inkscape.org/) -->

<svg
   width="210mm"
   height="297mm"
   viewBox="0 0 210 297"
   version="1.1"
   id="svg9582"
   inkscape:version="1.1.1 (3bf5ae0d25, 2021-09-20)"
   sodipodi:docname="hand.svg"
   xmlns:inkscape="http://www.inkscape.org/namespaces/inkscape"
   xmlns:sodipodi="http://sodipodi.sourceforge.net/DTD/sodipodi-0.dtd"
   xmlns="http://www.w3.org/2000/svg"
   xmlns:svg="http://www.w3.org/2000/svg">
  <sodipodi:namedview
     id="namedview9584"
     pagecolor="#ffffff"
     bordercolor="#666666"
     borderopacity="1.0"
     inkscape:pageshadow="2"
     inkscape:pageopacity="0.0"
     inkscape:pagecheckerboard="0"
     inkscape:document-units="mm"
     showgrid="false"
     inkscape:zoom="0.72337262"
     inkscape:cx="396.75265"
     inkscape:cy="559.18622"
     inkscape:window-width="1920"
     inkscape:window-height="1001"
     inkscape:window-x="-9"
     inkscape:window-y="1341"
     inkscape:window-maximized="1"
     inkscape:current-layer="layer1" />
  <defs
     id="defs9579" />
  <g
     inkscape:label="Calque 1"
     inkscape:groupmode="layer"
     id="layer1">
    <g
       id="g10326">
      <path
         d="m 135.94828,86.275793 c -26.1062,-10.33944 -76.869985,-4.833428 -21.21801,-5.593688 4.19119,0 7.75469,-1.295674 11.42202,0.502139 9.82159,8.015325 9.62881,4.611549 18.86046,0 3.66731,-1.797813 7.59658,-2.69672 11.78779,-2.69672 61.7434,10.692181 -2.26066,-10.548471 -20.85226,7.788269 z m -0.36576,57.730217 c -90.388347,-96.004007 -45.194173,-48.002003 0,0 z m -70.726739,66.31725 54.616759,15.18112 46.7582,-14.78159 c -0.65541,-1.19787 -1.60486,-2.22996 -2.84837,-3.09626 -1.24351,-0.86569 -2.65146,-1.29854 -4.22386,-1.29854 h -39.68568 c -3.53634,0 -6.35231,-0.13287 -8.44791,-0.39862 -2.09561,-0.26575 -4.25671,-0.79825 -6.4833,-1.59751 l -18.271072,-6.19222 4.32219,-15.58063 15.913522,5.39346 c 2.22658,0.66638 4.84609,1.19888 7.85854,1.59751 3.01243,0.40063 7.46558,0.66739 13.35947,0.80026 0,-1.46564 -0.42562,-2.86393 -1.27686,-4.19488 -0.85145,-1.33075 -1.86651,-2.19645 -3.04519,-2.59708 L 77.429858,166.37982 H 64.856241 Z m -47.151147,27.96507 v -87.89049 h 59.724784 c 0.916793,0 1.833583,0.10066 2.75037,0.30199 0.916787,0.20132 1.76813,0.43485 2.55403,0.7006 l 46.168832,17.37837 c 4.32219,1.59851 7.82578,4.3951 10.51077,8.38976 2.685,3.99487 4.0275,8.38937 4.0275,13.18349 h 15.71718 c 6.54879,0 12.11525,2.19724 16.69938,6.59173 4.58413,4.3945 6.87619,10.18729 6.87619,17.37837 v 7.98994 l -62.86833,19.97513 -55.009666,-15.58064 v 11.58569 z M 33.421662,222.30816 H 49.138729 V 166.37801 H 33.421662 Z"
         id="path9663"
         style="stroke-width:0.1981"
         sodipodi:nodetypes="ccccccccccccssscccccccccccccssccccssscccccccccc" />
    </g>
    <rect
       style="fill:#ffffff;stroke:#000000;stroke-width:0.103;stroke-linecap:round;stroke-linejoin:round;stroke-opacity:0"
       id="rect10730"
       width="111.19212"
       height="42.42857"
       x="84.12561"
       y="53.767239" />
  </g>
</svg>
