<?xml version="1.0" encoding="UTF-8" standalone="no"?>
<!-- Created with Inkscape (http://www.inkscape.org/) -->

<svg
   width="210mm"
   height="297mm"
   viewBox="0 0 210 297"
   version="1.1"
   id="svg5"
   inkscape:export-filename="C:\Users\ammoussaoui\modeliosaas\5.4\ws\ToscaDesigner\ToscaDesigner\src\main\conf\res\icon\gui\capabilityDefinitions48.png"
   inkscape:export-xdpi="8.4892797"
   inkscape:export-ydpi="8.4892797"
   inkscape:version="1.1.1 (3bf5ae0d25, 2021-09-20)"
   sodipodi:docname="capabilityDefinitions.svg"
   xmlns:inkscape="http://www.inkscape.org/namespaces/inkscape"
   xmlns:sodipodi="http://sodipodi.sourceforge.net/DTD/sodipodi-0.dtd"
   xmlns="http://www.w3.org/2000/svg"
   xmlns:svg="http://www.w3.org/2000/svg">
  <sodipodi:namedview
     id="namedview7"
     pagecolor="#ffffff"
     bordercolor="#666666"
     borderopacity="1.0"
     inkscape:pageshadow="2"
     inkscape:pageopacity="0.0"
     inkscape:pagecheckerboard="0"
     inkscape:document-units="mm"
     showgrid="false"
     inkscape:zoom="0.64052329"
     inkscape:cx="396.55076"
     inkscape:cy="561.25984"
     inkscape:window-width="1920"
     inkscape:window-height="1001"
     inkscape:window-x="-9"
     inkscape:window-y="1341"
     inkscape:window-maximized="1"
     inkscape:current-layer="g841" />
  <defs
     id="defs2" />
  <g
     inkscape:label="Calque 1"
     inkscape:groupmode="layer"
     id="layer1">
    <g
       style="fill:#f19143;fill-opacity:1"
       id="g841"
       transform="matrix(0.10438729,0,0,0.11091569,47.745632,198.64148)">
      <path
         d="M 253.11288,-87.448427 V -257.84702 Q 189.88426,-309.36287 154.94213,-378.21579 120,-447.0687 120,-523.35179 120,-671.95521 236.47377,-775.97761 352.94754,-880 519.33864,-880 q 138.65925,0 245.70419,72.81568 107.04494,72.81567 139.21388,189.71703 l 57.68225,203.09134 q 5.54637,18.8231 -7.76492,34.17879 -13.31129,15.35568 -35.49677,15.35568 h -88.74192 v 118.88274 q 0,32.69275 -26.06793,55.97395 -26.06794,23.28121 -62.67398,23.28121 h -88.74192 v 79.255153 H 563.7096 V -245.95874 H 741.19344 V -444.09663 H 860.99503 L 818.84261,-597.6535 q -25.5133,-90.15274 -108.70885,-146.62204 -83.19555,-56.4693 -190.79512,-56.4693 -128.67579,0 -219.63625,80.24584 -90.96047,80.24585 -90.96047,195.16583 0,59.44137 27.17721,112.9386 27.17721,53.49723 77.09454,95.10619 l 28.84113,23.77654 V -87.448427 Z M 534.86847,-444.09663 Z m -59.90079,79.25515 h 88.74192 l 6.65564,-49.53447 q 8.87419,-2.97207 16.08447,-6.93483 7.21028,-3.96276 12.75665,-8.9162 l 51.02661,19.81379 44.37096,-67.36689 -44.37096,-29.72068 q 2.21855,-7.92552 2.21855,-15.85103 0,-7.92552 -2.21855,-15.85103 l 44.37096,-29.72069 -44.37096,-67.36688 -51.02661,19.81379 q -5.54637,-4.95345 -12.75665,-8.91621 -7.21028,-3.96276 -16.08447,-6.93482 l -6.65564,-49.53448 h -88.74192 l -6.65565,49.53448 q -8.87419,2.97206 -16.08447,6.93482 -7.21028,3.96276 -12.75665,8.91621 l -51.0266,-19.81379 -44.37096,67.36688 44.37096,29.72069 q -2.21855,7.92551 -2.21855,15.85103 0,7.92551 2.21855,15.85103 l -44.37096,29.72068 44.37096,67.36689 51.0266,-19.81379 q 5.54637,4.95344 12.75665,8.9162 7.21028,3.96276 16.08447,6.93483 z m 44.37096,-99.06894 q -27.73185,0 -47.14415,-17.33707 -19.41229,-17.33707 -19.41229,-42.1043 0,-24.76724 19.41229,-42.1043 19.4123,-17.33707 47.14415,-17.33707 27.73185,0 47.14414,17.33707 19.4123,17.33706 19.4123,42.1043 0,24.76723 -19.4123,42.1043 -19.41229,17.33707 -47.14414,17.33707 z"
         id="path832"
         style="fill:#fabc3c;fill-opacity:1;stroke-width:1.04831"
         inkscape:export-filename="C:\Users\ammoussaoui\modeliosaas\5.4\ws\ToscaDesigner\ToscaDesigner\src\main\conf\res\icon\gui\capabilityDefinition48.png"
         inkscape:export-xdpi="13.869296"
         inkscape:export-ydpi="13.869296" />
      <path
         d="M -136.82328,76.416949 V 5.3058887 q -25.5603,-21.4986897 -39.6857,-50.2325097 -14.1255,-28.73383 -14.1255,-60.568419 0,-62.01546 47.0848,-105.42628 47.084804,-43.41082 114.348804,-43.41082 56.0533,0 99.3265,30.38758 43.273096,30.38757 56.277496,79.17306 l 23.3181,84.754449 q 2.2422,7.85529 -3.1389,14.26356 -5.3812,6.40826 -14.3497,6.40826 H 96.358524 v 49.61236 q 0,13.6434 -10.538,23.35916 -10.538,9.71575 -25.3361,9.71575 h -35.8741 v 33.07491 h -35.8741 v -66.14982 h 71.7482 v -82.68727 H 108.91442 L 91.874224,-136.50277 q -10.3138,-37.62271 -43.9458,-61.18859 -33.6319,-23.56587 -77.1293,-23.56587 -52.0175,0 -88.788504,33.48834 -36.7709,33.48835 -36.7709,81.44697 0,24.806179 10.9864,47.131739 10.9865,22.32557 31.1657,39.6899 l 11.659,9.9224697 V 76.416949 Z m 113.900404,-148.83709 z m -24.2151,33.07491 h 35.8742 l 2.6905005,-20.67182 q 3.5874,-1.24031 6.5022,-2.89406 2.91479995,-1.65374 5.1569,-3.72092 l 20.6275995,8.26873 17.9371,-28.11367 -17.9371,-12.40309 q 0.8969,-3.307499 0.8969,-6.614979 0,-3.3075 -0.8969,-6.61499 l 17.9371,-12.40309 -17.9371,-28.11367 -20.6275995,8.26873 q -2.24210005,-2.06719 -5.1569,-3.72093 -2.9148,-1.65375 -6.5022,-2.89406 l -2.6905005,-20.67182 h -35.8742 l -2.6905,20.67182 q -3.5875,1.24031 -6.5022,2.89406 -2.9148,1.65374 -5.1569,3.72093 l -20.6276,-8.26873 -17.937104,28.11367 17.937104,12.40309 q -0.8969,3.30749 -0.8969,6.61499 0,3.30748 0.8969,6.614979 l -17.937104,12.40309 17.937104,28.11367 20.6276,-8.26873 q 2.2421,2.06718 5.1569,3.72092 2.9147,1.65375 6.5022,2.89406 z m 17.9371,-41.34364 q -11.2107,0 -19.0581,-7.23513 -7.8475,-7.23514 -7.8475,-17.571039 0,-10.33592 7.8475,-17.57105 7.8474,-7.23514 19.0581,-7.23514 11.2107,0 19.0581,7.23514 7.8475005,7.23513 7.8475005,17.57105 0,10.335899 -7.8475005,17.571039 -7.8474,7.23513 -19.0581,7.23513 z"
         id="path832-8"
         style="fill:#f19143;fill-opacity:1;stroke-width:0.430578"
         inkscape:export-filename="C:\Users\ammoussaoui\modeliosaas\5.4\ws\ToscaDesigner\ToscaDesigner\src\main\conf\res\icon\gui\capabilityDefinition48.png"
         inkscape:export-xdpi="13.869296"
         inkscape:export-ydpi="13.869296" />
      <path
         d="m 897.96535,13.105318 v -71.11106 q -25.5603,-21.49869 -39.6857,-50.232508 -14.1255,-28.73383 -14.1255,-60.56842 0,-62.01546 47.0848,-105.42628 47.0848,-43.41082 114.34875,-43.41082 56.0533,0 99.3265,30.38758 43.2731,30.38757 56.2775,79.17306 l 23.3181,84.75445 q 2.2422,7.85529 -3.1389,14.26356 -5.3812,6.40826 -14.3497,6.40826 h -35.8741 v 49.612358 q 0,13.6434 -10.538,23.35916 -10.538,9.71575 -25.3361,9.71575 h -35.8741 v 33.07491 h -35.8741 v -66.14982 h 71.7482 v -82.687268 h 48.43 l -17.0402,-64.08263 q -10.3138,-37.62271 -43.9458,-61.18859 -33.6319,-23.56587 -77.1293,-23.56587 -52.01745,0 -88.78845,33.48834 -36.7709,33.48835 -36.7709,81.44697 0,24.80618 10.9864,47.13174 10.9865,22.32557 31.1657,39.689898 l 11.659,9.92247 v 85.99476 z M 1011.8657,-135.73177 Z m -24.21505,33.07491 h 35.87415 l 2.6905,-20.67182 q 3.5874,-1.24031 6.5022,-2.89406 2.9148,-1.65374 5.1569,-3.72092 l 20.6276,8.26873 17.9371,-28.11367 -17.9371,-12.40309 q 0.8969,-3.3075 0.8969,-6.61498 0,-3.3075 -0.8969,-6.61499 l 17.9371,-12.40309 -17.9371,-28.11367 -20.6276,8.26872 q -2.2421,-2.06718 -5.1569,-3.72092 -2.9148,-1.65375 -6.5022,-2.89406 l -2.6905,-20.67182 h -35.87415 l -2.6905,20.67182 q -3.5875,1.24031 -6.5022,2.89406 -2.9148,1.65374 -5.1569,3.72092 l -20.6276,-8.26872 -17.9371,28.11367 17.9371,12.40309 q -0.8969,3.30749 -0.8969,6.61499 0,3.30748 0.8969,6.61498 l -17.9371,12.40309 17.9371,28.11367 20.6276,-8.26873 q 2.2421,2.06718 5.1569,3.72092 2.9147,1.65375 6.5022,2.89406 z m 17.93705,-41.34364 q -11.21065,0 -19.05805,-7.23513 -7.8475,-7.23514 -7.8475,-17.57104 0,-10.33592 7.8475,-17.57105 7.8474,-7.23514 19.05805,-7.23514 11.2107,0 19.0581,7.23514 7.8475,7.23513 7.8475,17.57105 0,10.3359 -7.8475,17.57104 -7.8474,7.23513 -19.0581,7.23513 z"
         id="path832-8-3"
         style="fill:#f19143;fill-opacity:1;stroke-width:0.430578"
         inkscape:export-filename="C:\Users\ammoussaoui\modeliosaas\5.4\ws\ToscaDesigner\ToscaDesigner\src\main\conf\res\icon\gui\capabilityDefinition48.png"
         inkscape:export-xdpi="13.869296"
         inkscape:export-ydpi="13.869296" />
      <path
         d="m -115.05904,-612.56255 v -71.11106 q -25.5603,-21.49869 -39.6857,-50.23251 -14.1255,-28.73383 -14.1255,-60.56842 0,-62.01546 47.0848,-105.42628 47.084803,-43.41082 114.3488033,-43.41082 56.0532997,0 99.3264997,30.38758 43.273067,30.38757 56.277467,79.17306 l 23.3181,84.75445 q 2.2422,7.85529 -3.1389,14.26356 -5.3812,6.40826 -14.3497,6.40826 h -35.8741 v 49.61236 q 0,13.6434 -10.53797,23.35916 -10.537997,9.71575 -25.336097,9.71575 h -35.8741 v 33.07491 h -35.8741 v -66.14982 h 71.7482 v -82.68727 h 48.429967 l -17.0402,-64.08263 q -10.31377,-37.62271 -43.945767,-61.18858 -33.6319,-23.56588 -77.1292997,-23.56588 -52.0175003,0 -88.7885003,33.48835 -36.770903,33.48834 -36.770903,81.44696 0,24.80618 10.9864,47.13174 10.9865,22.32557 31.165703,39.6899 l 11.659,9.92247 v 85.99476 z M -1.1586367,-761.39964 Z m -24.2151003,33.07491 h 35.8742 l 2.6905,-20.67182 q 3.5874,-1.24031 6.5022,-2.89406 2.9148,-1.65374 5.1569,-3.72092 l 20.6276,8.26873 17.9371,-28.11367 -17.9371,-12.40309 q 0.8969,-3.3075 0.8969,-6.61498 0,-3.3075 -0.8969,-6.61499 l 17.9371,-12.40309 -17.9371,-28.11367 -20.6276,8.26873 q -2.2421,-2.06719 -5.1569,-3.72093 -2.9148,-1.65375 -6.5022,-2.89405 l -2.6905,-20.67182 h -35.8742 l -2.6905,20.67182 q -3.5875,1.2403 -6.5022,2.89405 -2.9148,1.65374 -5.1569,3.72093 l -20.6276,-8.26873 -17.9371,28.11367 17.9371,12.40309 q -0.8969,3.30749 -0.8969,6.61499 0,3.30748 0.8969,6.61498 l -17.9371,12.40309 17.9371,28.11367 20.6276,-8.26873 q 2.2421,2.06718 5.1569,3.72092 2.9147,1.65375 6.5022,2.89406 z m 17.9371003,-41.34364 q -11.2107003,0 -19.0581003,-7.23513 -7.8475,-7.23514 -7.8475,-17.57104 0,-10.33592 7.8475,-17.57105 7.8474,-7.23514 19.0581003,-7.23514 11.2107,0 19.0580997,7.23514 7.8475,7.23513 7.8475,17.57105 0,10.3359 -7.8475,17.57104 -7.8473997,7.23513 -19.0580997,7.23513 z"
         id="path832-8-4"
         style="fill:#f19143;fill-opacity:1;stroke-width:0.430578"
         inkscape:export-filename="C:\Users\ammoussaoui\modeliosaas\5.4\ws\ToscaDesigner\ToscaDesigner\src\main\conf\res\icon\gui\capabilityDefinition48.png"
         inkscape:export-xdpi="13.869296"
         inkscape:export-ydpi="13.869296" />
    </g>
  </g>
</svg>
