<?xml version="1.0" encoding="UTF-8" standalone="no"?>
<!-- Created with Inkscape (http://www.inkscape.org/) -->

<svg
   width="210mm"
   height="297mm"
   viewBox="0 0 210 297"
   version="1.1"
   id="svg5"
   inkscape:version="1.1.1 (3bf5ae0d25, 2021-09-20)"
   sodipodi:docname="requirement.svg"
   xmlns:inkscape="http://www.inkscape.org/namespaces/inkscape"
   xmlns:sodipodi="http://sodipodi.sourceforge.net/DTD/sodipodi-0.dtd"
   xmlns="http://www.w3.org/2000/svg"
   xmlns:svg="http://www.w3.org/2000/svg">
  <sodipodi:namedview
     id="namedview7"
     pagecolor="#ffffff"
     bordercolor="#666666"
     borderopacity="1.0"
     inkscape:pageshadow="2"
     inkscape:pageopacity="0.0"
     inkscape:pagecheckerboard="0"
     inkscape:document-units="mm"
     showgrid="false"
     inkscape:zoom="0.64052329"
     inkscape:cx="396.55076"
     inkscape:cy="561.25984"
     inkscape:window-width="1920"
     inkscape:window-height="1001"
     inkscape:window-x="877"
     inkscape:window-y="1431"
     inkscape:window-maximized="1"
     inkscape:current-layer="layer1" />
  <defs
     id="defs2">
    <rect
       x="354.39773"
       y="505.83641"
       width="101.47953"
       height="40.591811"
       id="rect15417" />
    <rect
       x="260.72432"
       y="446.50992"
       width="312.2447"
       height="245.11209"
       id="rect10869" />
    <rect
       x="68.693833"
       y="398.11199"
       width="118.65298"
       height="112.40809"
       id="rect4697" />
  </defs>
  <g
     inkscape:label="Calque 1"
     inkscape:groupmode="layer"
     id="layer1">
    <text
       xml:space="preserve"
       transform="scale(0.26458333)"
       id="text4695"
       style="fill:black;fill-opacity:1;line-height:1.25;stroke:none;font-family:sans-serif;font-style:normal;font-weight:normal;font-size:40px;white-space:pre;shape-inside:url(#rect4697)" />
    <text
       xml:space="preserve"
       transform="scale(0.26458333)"
       id="text15415"
       style="fill:black;fill-opacity:1;line-height:1.25;stroke:none;font-family:sans-serif;font-style:normal;font-weight:normal;font-size:40px;white-space:pre;shape-inside:url(#rect15417)" />
    <path
       d="m 86.884492,167.81728 q -1.49696,0 -2.56305,-1.19356 -1.066,-1.19363 -1.066,-2.86971 v -28.44264 q 0,-1.67608 1.066,-2.86971 1.06609,-1.19356 2.56305,-1.19356 h 29.032158 q 1.49697,0 2.56297,1.19356 1.06608,1.19363 1.06608,2.86971 v 28.44264 q 0,1.67608 -1.06608,2.86971 -1.066,1.19356 -2.56297,1.19356 z m 0,-4.06327 H 115.91665 V 135.31137 H 86.884492 Z m 1.81449,-4.06319 h 9.07257 v -4.06327 h -9.07257 z m 17.328568,-4.06327 8.98185,-10.05654 -2.58566,-2.89505 -6.39619,7.21225 -2.58567,-2.89505 -2.54033,2.89505 z m -17.328568,-4.06327 h 9.07257 v -4.06319 h -9.07257 z m 0,-8.12645 h 9.07257 v -4.06327 h -9.07257 z m -1.81449,20.31618 v -28.44264 z"
       id="path46778"
       style="stroke-width:0.0479999;fill:#fabc3c;fill-opacity:1"
       inkscape:export-filename="C:\Users\ammoussaoui\modeliosaas\5.4\ws\ToscaDesigner\ToscaDesigner\src\main\conf\res\icon\gui\requirement24.png"
       inkscape:export-xdpi="16.797895"
       inkscape:export-ydpi="16.797895" />
  </g>
</svg>
