<?xml version="1.0" encoding="UTF-8" standalone="no"?>
<!-- Created with Inkscape (http://www.inkscape.org/) -->

<svg
   width="210mm"
   height="297mm"
   viewBox="0 0 210 297"
   version="1.1"
   id="svg5"
   inkscape:version="1.1.1 (3bf5ae0d25, 2021-09-20)"
   sodipodi:docname="artifact_template.svg"
   xmlns:inkscape="http://www.inkscape.org/namespaces/inkscape"
   xmlns:sodipodi="http://sodipodi.sourceforge.net/DTD/sodipodi-0.dtd"
   xmlns="http://www.w3.org/2000/svg"
   xmlns:svg="http://www.w3.org/2000/svg">
  <sodipodi:namedview
     id="namedview7"
     pagecolor="#ffffff"
     bordercolor="#666666"
     borderopacity="1.0"
     inkscape:pageshadow="2"
     inkscape:pageopacity="0.0"
     inkscape:pagecheckerboard="0"
     inkscape:document-units="mm"
     showgrid="false"
     inkscape:zoom="0.64052329"
     inkscape:cx="396.55076"
     inkscape:cy="561.25984"
     inkscape:window-width="1920"
     inkscape:window-height="1001"
     inkscape:window-x="-9"
     inkscape:window-y="1341"
     inkscape:window-maximized="1"
     inkscape:current-layer="layer1" />
  <defs
     id="defs2">
    <style
       id="style96550">
      .cls-1 {
        fill: none;
      }
    </style>
    <style
       id="style106908">
      .cls-1 {
        fill: none;
      }
    </style>
  </defs>
  <g
     inkscape:label="Calque 1"
     inkscape:groupmode="layer"
     id="layer1">
    <g
       style="clip-rule:evenodd;fill:#fabc3c;fill-opacity:1;fill-rule:evenodd;stroke-linejoin:round;stroke-miterlimit:2"
       id="g30067"
       transform="matrix(0.30479144,0,0,0.2693118,24.676012,77.875203)"
       inkscape:export-filename="C:\Users\ammoussaoui\modeliosaas\5.4\ws\ToscaDesigner\modules\MYRTHUS-DESIGNER\ToscaDesigner\src\main\conf\res\icon\gui\artifact_template48.png"
       inkscape:export-xdpi="8.0702944"
       inkscape:export-ydpi="8.0702944">
      <g
         id="_42-Template"
         style="display:inline;fill:#fabc3c;fill-opacity:1"
         transform="translate(-2048,-8192)">
        <g
           id="g1900"
           transform="translate(2118.61,8222)"
           style="fill:#fabc3c;fill-opacity:1">
          <path
             d="M 0,452.002 V 0 h 259.03 v 20.581 h -42.84 c -8.284,0 -15,6.716 -15,15 v 221.845 c 0,8.284 6.716,15 15,15 h 115.67 c 8.284,0 15,-6.716 15,-15 V 123.995 h 23.93 V 452.002 Z M 289.03,93.995 V 24.047 l 63.046,69.948 z m -15,30 h 42.83 V 242.426 H 231.19 V 50.581 h 27.84 v 58.414 c 0,8.284 6.716,15 15,15 M 396.931,98.952 285.171,-25.043 C 282.328,-28.198 278.278,-30 274.03,-30 H -15 c -8.284,0 -15,6.716 -15,15 v 482.002 c 0,8.284 6.716,15 15,15 h 400.79 c 8.284,0 15,-6.716 15,-15 V 108.995 c 0,-3.709 -1.374,-7.287 -3.859,-10.043"
             id="path1898"
             style="fill:#fabc3c;fill-opacity:1;fill-rule:nonzero" />
        </g>
        <g
           id="g1904"
           transform="translate(0,7327.05)"
           style="fill:#fabc3c;fill-opacity:1">
          <path
             d="m 2258.2,1296.37 h -85.67 v -191.84 h 85.67 z m 15,-221.84 h -115.67 c -8.28,0 -15,6.71 -15,15 v 221.84 c 0,8.29 6.72,15 15,15 h 115.67 c 8.28,0 15,-6.71 15,-15 v -221.84 c 0,-8.29 -6.72,-15 -15,-15"
             id="path1902"
             style="fill:#fabc3c;fill-opacity:1;fill-rule:nonzero" />
        </g>
        <g
           id="g1908"
           transform="translate(0,6884.04)"
           style="fill:#fabc3c;fill-opacity:1">
          <path
             d="m 2258.2,1455.37 h -85.67 v -66.83 h 85.67 z m 15,-96.83 h -115.67 c -8.28,0 -15,6.71 -15,15 v 96.83 c 0,8.28 6.72,15 15,15 h 115.67 c 8.28,0 15,-6.72 15,-15 v -96.83 c 0,-8.29 -6.72,-15 -15,-15"
             id="path1906"
             style="fill:#fabc3c;fill-opacity:1;fill-rule:nonzero" />
        </g>
        <g
           id="g1912"
           transform="translate(0,7452.06)"
           style="fill:#fabc3c;fill-opacity:1">
          <path
             d="m 2435.46,1171.36 h -85.66 v -66.83 h 85.66 z m 15,-96.83 H 2334.8 c -8.29,0 -15,6.71 -15,15 v 96.83 c 0,8.28 6.71,15 15,15 h 115.66 c 8.28,0 15,-6.72 15,-15 v -96.83 c 0,-8.29 -6.72,-15 -15,-15"
             id="path1910"
             style="fill:#fabc3c;fill-opacity:1;fill-rule:nonzero" />
        </g>
      </g>
    </g>
    <text
       xml:space="preserve"
       style="font-style:normal;font-weight:normal;font-size:125.693px;line-height:1.25;font-family:sans-serif;fill:#f55536;fill-opacity:1;stroke:none;stroke-width:0.336679"
       x="105.18108"
       y="225.94362"
       id="text117824"
       transform="scale(0.99270661,1.007347)"
       inkscape:export-filename="C:\Users\ammoussaoui\modeliosaas\5.4\ws\ToscaDesigner\modules\MYRTHUS-DESIGNER\ToscaDesigner\src\main\conf\res\icon\gui\artifact_template48.png"
       inkscape:export-xdpi="8.0702944"
       inkscape:export-ydpi="8.0702944"><tspan
         id="tspan117822"
         style="font-size:125.693px;fill:#f55536;fill-opacity:1;stroke-width:0.336679"
         x="105.18108"
         y="225.94362"
         sodipodi:role="line">A</tspan></text>
  </g>
</svg>
