<?xml version="1.0" encoding="UTF-8" standalone="no"?>
<svg
   height="24px"
   viewBox="0 -960 960 960"
   width="24px"
   fill="#5f6368"
   version="1.1"
   id="svg1171"
   sodipodi:docname="artifact.svg"
   inkscape:version="1.1.1 (3bf5ae0d25, 2021-09-20)"
   xmlns:inkscape="http://www.inkscape.org/namespaces/inkscape"
   xmlns:sodipodi="http://sodipodi.sourceforge.net/DTD/sodipodi-0.dtd"
   xmlns="http://www.w3.org/2000/svg"
   xmlns:svg="http://www.w3.org/2000/svg">
  <defs
     id="defs1175" />
  <sodipodi:namedview
     id="namedview1173"
     pagecolor="#ffffff"
     bordercolor="#666666"
     borderopacity="1.0"
     inkscape:pageshadow="2"
     inkscape:pageopacity="0.0"
     inkscape:pagecheckerboard="0"
     showgrid="false"
     inkscape:zoom="29.958333"
     inkscape:cx="11.98331"
     inkscape:cy="12"
     inkscape:window-width="1920"
     inkscape:window-height="1001"
     inkscape:window-x="877"
     inkscape:window-y="1431"
     inkscape:window-maximized="1"
     inkscape:current-layer="svg1171" />
  <path
     d="M344-336 200-480l144-144 56 57-87 87 87 87-56 57Zm272 0-56-57 87-87-87-87 56-57 144 144-144 144ZM200-120q-33 0-56.5-23.5T120-200v-160h80v160h160v80H200Zm400 0v-80h160v-160h80v160q0 33-23.5 56.5T760-120H600ZM120-600v-160q0-33 23.5-56.5T200-840h160v80H200v160h-80Zm640 0v-160H600v-80h160q33 0 56.5 23.5T840-760v160h-80Z"
     id="path1169"
     style="fill:#2f9c95;fill-opacity:1"
     inkscape:export-filename="C:\Users\ammoussaoui\modeliosaas\5.4\ws\ToscaDesigner\ToscaDesigner\src\main\conf\res\icon\gui\tartifact48.png"
     inkscape:export-xdpi="256"
     inkscape:export-ydpi="256" />
</svg>
