<?xml version="1.0" encoding="UTF-8" standalone="no"?>
<svg
   height="24px"
   viewBox="0 -960 960 960"
   width="24px"
   fill="#5f6368"
   version="1.1"
   id="svg2042"
   sodipodi:docname="capability.svg"
   inkscape:version="1.1.1 (3bf5ae0d25, 2021-09-20)"
   xmlns:inkscape="http://www.inkscape.org/namespaces/inkscape"
   xmlns:sodipodi="http://sodipodi.sourceforge.net/DTD/sodipodi-0.dtd"
   xmlns="http://www.w3.org/2000/svg"
   xmlns:svg="http://www.w3.org/2000/svg">
  <defs
     id="defs2046" />
  <sodipodi:namedview
     id="namedview2044"
     pagecolor="#ffffff"
     bordercolor="#666666"
     borderopacity="1.0"
     inkscape:pageshadow="2"
     inkscape:pageopacity="0.0"
     inkscape:pagecheckerboard="0"
     showgrid="false"
     inkscape:zoom="29.958333"
     inkscape:cx="11.98331"
     inkscape:cy="12"
     inkscape:window-width="1920"
     inkscape:window-height="1001"
     inkscape:window-x="877"
     inkscape:window-y="1431"
     inkscape:window-maximized="1"
     inkscape:current-layer="svg2042" />
  <path
     d="m 240,-332.81688 79,-25.68354 q -10,-23.27571 -18.5,-47.35403 -8.5,-24.07832 -13.5,-48.15664 l -47,25.68353 z m 160,-33.70965 h 160 q 18,-32.10443 29,-78.25455 11,-46.15011 11,-94.30675 0,-79.45847 -33,-150.48952 -33,-71.03104 -87,-109.55635 -54,38.52531 -87,109.55635 -33,71.03105 -33,150.48952 0,48.15664 11,94.30675 11,46.15012 29,78.25455 z m 80,-160.52215 q -33,0 -56.5,-18.86135 -23.5,-18.86134 -23.5,-45.3475 0,-26.48616 23.5,-45.3475 23.5,-18.86136 56.5,-18.86136 33,0 56.5,18.86136 23.5,18.86134 23.5,45.3475 0,26.48616 -23.5,45.3475 -23.5,18.86135 -56.5,18.86135 z m 240,194.2318 v -95.51068 l -47,-25.68353 q -5,24.07832 -13.5,48.15664 -8.5,24.07832 -18.5,47.35403 z M 480,-881 q 99,57.78797 149.5,146.87777 50.5,89.08978 50.5,207.07355 l 84,44.9462 q 17,8.82872 26.5,23.27572 9.5,14.44699 9.5,30.4992 v 190.21874 L 601,-302.31767 H 359 l -199,64.20885 v -190.21874 q 0,-16.05221 9.5,-30.4992 9.5,-14.447 26.5,-23.27572 l 84,-44.9462 q 0,-117.98377 50.5,-207.07355 Q 381,-823.21203 480,-881 Z"
     id="path2040"
     style="fill:#e2fdff;fill-opacity:1;stroke-width:0.895886"
     inkscape:export-filename="C:\Users\ammoussaoui\modeliosaas\5.4\ws\ToscaDesigner\ToscaDesigner\src\main\conf\res\icon\gui\capabilityDefinition48.png"
     inkscape:export-xdpi="286.70483"
     inkscape:export-ydpi="286.70483" />
</svg>
