<?xml version="1.0" encoding="UTF-8" standalone="no"?>
<svg
   height="24"
   viewBox="0 -960 960 960"
   width="24"
   version="1.1"
   id="svg1041"
   sodipodi:docname="RequirementDefinitionsType.svg"
   inkscape:version="1.1.1 (3bf5ae0d25, 2021-09-20)"
   xmlns:inkscape="http://www.inkscape.org/namespaces/inkscape"
   xmlns:sodipodi="http://sodipodi.sourceforge.net/DTD/sodipodi-0.dtd"
   xmlns="http://www.w3.org/2000/svg"
   xmlns:svg="http://www.w3.org/2000/svg">
  <defs
     id="defs1045" />
  <sodipodi:namedview
     id="namedview1043"
     pagecolor="#ffffff"
     bordercolor="#666666"
     borderopacity="1.0"
     inkscape:pageshadow="2"
     inkscape:pageopacity="0.0"
     inkscape:pagecheckerboard="0"
     showgrid="false"
     inkscape:zoom="29.125"
     inkscape:cx="11.982833"
     inkscape:cy="12"
     inkscape:window-width="1920"
     inkscape:window-height="1001"
     inkscape:window-x="877"
     inkscape:window-y="1431"
     inkscape:window-maximized="1"
     inkscape:current-layer="svg1041" />
  <path
     d="m 195.98283,-477.08154 q -5.92017,0 -10.13605,-5.47997 -4.21588,-5.47998 -4.21588,-13.17525 v -130.58655 q 0,-7.69528 4.21588,-13.17526 4.21588,-5.47997 10.13605,-5.47997 h 114.81545 q 5.92017,0 10.13605,5.47997 4.21588,5.47998 4.21588,13.17526 v 130.58655 q 0,7.69527 -4.21588,13.17525 -4.21588,5.47997 -10.13605,5.47997 z m 0,-18.65522 H 310.79828 V -626.32331 H 195.98283 Z m 7.17597,-18.65523 h 35.87982 V -533.0472 H 203.1588 Z m 68.53047,-18.65521 35.52103,-46.17168 -10.22575,-13.29185 -25.29528,33.11303 -10.22575,-13.29185 -10.04635,13.29185 z m -68.53047,-18.65523 h 35.87982 v -18.65522 H 203.1588 Z m 0,-37.31044 h 35.87982 v -18.65522 H 203.1588 Z m -7.17597,93.27611 v -130.58655 z"
     id="path1039"
     style="stroke-width:0.204534;fill:#ffcc00" />
  <path
     d="m 364.22318,-479.14163 q -5.92017,0 -10.13605,-5.47997 -4.21588,-5.47998 -4.21588,-13.17525 V -628.3834 q 0,-7.69528 4.21588,-13.17526 4.21588,-5.47997 10.13605,-5.47997 h 114.81545 q 5.92017,0 10.13605,5.47997 4.21588,5.47998 4.21588,13.17526 v 130.58655 q 0,7.69527 -4.21588,13.17525 -4.21588,5.47997 -10.13605,5.47997 z m 0,-18.65522 H 479.03863 V -628.3834 H 364.22318 Z m 7.17597,-18.65523 h 35.87982 v -18.65521 h -35.87982 z m 68.53047,-18.65521 35.52103,-46.17168 -10.22575,-13.29185 -25.29528,33.11303 -10.22575,-13.29185 -10.04635,13.29185 z m -68.53047,-18.65523 h 35.87982 v -18.65522 h -35.87982 z m 0,-37.31044 h 35.87982 v -18.65522 h -35.87982 z m -7.17597,93.27611 V -628.3834 Z"
     id="path1039-1"
     style="stroke-width:0.204534;fill:#ffcc00" />
  <path
     d="m 530.40344,-483.2618 q -5.92017,0 -10.13605,-5.47997 -4.21588,-5.47998 -4.21588,-13.17525 v -130.58655 q 0,-7.69528 4.21588,-13.17526 4.21588,-5.47997 10.13605,-5.47997 h 114.81545 q 5.92017,0 10.13605,5.47997 4.21588,5.47998 4.21588,13.17526 v 130.58655 q 0,7.69527 -4.21588,13.17525 -4.21588,5.47997 -10.13605,5.47997 z m 0,-18.65522 H 645.21889 V -632.50357 H 530.40344 Z m 7.17597,-18.65523 h 35.87982 v -18.65521 h -35.87982 z m 68.53047,-18.65521 35.52103,-46.17168 -10.22575,-13.29185 -25.29528,33.11303 -10.22575,-13.29185 -10.04635,13.29185 z m -68.53047,-18.65523 h 35.87982 v -18.65522 h -35.87982 z m 0,-37.31044 h 35.87982 v -18.65522 h -35.87982 z m -7.17597,93.27611 v -130.58655 z"
     id="path1039-7"
     style="stroke-width:0.204534;fill:#ffcc00" />
  <path
     d="m 191.17596,-295.1073 q -5.92017,0 -10.13605,-5.47997 -4.21588,-5.47997 -4.21588,-13.17525 v -130.58655 q 0,-7.69528 4.21588,-13.17525 4.21588,-5.47997 10.13605,-5.47997 h 114.81545 q 5.92017,0 10.13605,5.47997 4.21588,5.47997 4.21588,13.17525 v 130.58655 q 0,7.69528 -4.21588,13.17525 -4.21588,5.47997 -10.13605,5.47997 z m 0,-18.65522 H 305.99141 V -444.34907 H 191.17596 Z m 7.17597,-18.65522 h 35.87982 v -18.65521 h -35.87982 z m 68.53047,-18.65521 35.52103,-46.17169 -10.22575,-13.29184 -25.29528,33.11302 -10.22575,-13.29184 -10.04635,13.29184 z m -68.53047,-18.65523 h 35.87982 v -18.65522 h -35.87982 z m 0,-37.31044 h 35.87982 v -18.65522 h -35.87982 z m -7.17597,93.27611 v -130.58655 z"
     id="path1039-5"
     style="stroke-width:0.204534;fill:#ffcc00" />
  <path
     d="m 365.59656,-293.73391 q -5.92017,0 -10.13605,-5.47997 -4.21588,-5.47998 -4.21588,-13.17525 v -130.58655 q 0,-7.69528 4.21588,-13.17526 4.21588,-5.47997 10.13605,-5.47997 h 114.81545 q 5.92017,0 10.13605,5.47997 4.21588,5.47998 4.21588,13.17526 v 130.58655 q 0,7.69527 -4.21588,13.17525 -4.21588,5.47997 -10.13605,5.47997 z m 0,-18.65522 H 480.41201 V -442.97568 H 365.59656 Z m 7.17597,-18.65523 h 35.87982 v -18.65521 h -35.87982 z m 68.53047,-18.65521 35.52103,-46.17168 -10.22575,-13.29185 -25.29528,33.11303 -10.22575,-13.29185 -10.04635,13.29185 z m -68.53047,-18.65523 h 35.87982 v -18.65522 h -35.87982 z m 0,-37.31044 h 35.87982 v -18.65522 h -35.87982 z m -7.17597,93.27611 v -130.58655 z"
     id="path1039-0"
     style="stroke-width:0.204534;fill:#ffcc00" />
  <path
     d="m 195.29614,-116.56652 q -5.92017,0 -10.13605,-5.47997 -4.21588,-5.47998 -4.21588,-13.17525 v -130.58655 q 0,-7.69528 4.21588,-13.17526 4.21588,-5.47997 10.13605,-5.47997 h 114.81545 q 5.92017,0 10.13605,5.47997 4.21588,5.47998 4.21588,13.17526 v 130.58655 q 0,7.69527 -4.21588,13.17525 -4.21588,5.47997 -10.13605,5.47997 z m 0,-18.65522 H 310.11159 V -265.80829 H 195.29614 Z m 7.17597,-18.65523 h 35.87982 v -18.65521 h -35.87982 z m 68.53047,-18.65521 35.52103,-46.17168 -10.22575,-13.29185 -25.29528,33.11303 -10.22575,-13.29185 -10.04635,13.29185 z m -68.53047,-18.65523 h 35.87982 v -18.65522 h -35.87982 z m 0,-37.31044 h 35.87982 v -18.65522 h -35.87982 z m -7.17597,93.27611 v -130.58655 z"
     id="path1039-6"
     style="stroke-width:0.204534;fill:#ffcc00" />
  <path
     d="m 365.59656,-113.81974 q -5.92017,0 -10.13605,-5.47997 -4.21588,-5.47998 -4.21588,-13.17525 v -130.58655 q 0,-7.69528 4.21588,-13.17526 4.21588,-5.47997 10.13605,-5.47997 h 114.81545 q 5.92017,0 10.13605,5.47997 4.21588,5.47998 4.21588,13.17526 v 130.58655 q 0,7.69527 -4.21588,13.17525 -4.21588,5.47997 -10.13605,5.47997 z m 0,-18.65522 H 480.41201 V -263.06151 H 365.59656 Z m 7.17597,-18.65523 h 35.87982 v -18.65521 h -35.87982 z m 68.53047,-18.65521 35.52103,-46.17168 -10.22575,-13.29185 -25.29528,33.11303 -10.22575,-13.29185 -10.04635,13.29185 z m -68.53047,-18.65523 h 35.87982 v -18.65522 h -35.87982 z m 0,-37.31044 h 35.87982 v -18.65522 h -35.87982 z m -7.17597,93.27611 v -130.58655 z"
     id="path1039-2"
     style="stroke-width:0.204534;fill:#ffcc00" />
</svg>
