<?xml version="1.0" encoding="UTF-8" standalone="no"?>
<svg
   height="24"
   viewBox="0 -960 960 960"
   width="24"
   version="1.1"
   id="svg2290"
   sodipodi:docname="deployment.svg"
   inkscape:version="1.1.1 (3bf5ae0d25, 2021-09-20)"
   xmlns:inkscape="http://www.inkscape.org/namespaces/inkscape"
   xmlns:sodipodi="http://sodipodi.sourceforge.net/DTD/sodipodi-0.dtd"
   xmlns="http://www.w3.org/2000/svg"
   xmlns:svg="http://www.w3.org/2000/svg">
  <defs
     id="defs2294" />
  <sodipodi:namedview
     id="namedview2292"
     pagecolor="#ffffff"
     bordercolor="#666666"
     borderopacity="1.0"
     inkscape:pageshadow="2"
     inkscape:pageopacity="0.0"
     inkscape:pagecheckerboard="0"
     showgrid="false"
     inkscape:zoom="29.958333"
     inkscape:cx="11.98331"
     inkscape:cy="12"
     inkscape:window-width="1920"
     inkscape:window-height="1001"
     inkscape:window-x="877"
     inkscape:window-y="1431"
     inkscape:window-maximized="1"
     inkscape:current-layer="svg2290" />
  <path
     d="M 440,-252.45463 V -499.15109 L 200,-624.30002 v 246.69645 z m 80,0 240,-125.14894 V -624.30002 L 520,-499.15109 Z M 480,-561.27538 717,-684.62361 480,-807.97184 243,-684.62361 Z m -320,246.69646 q -19,-9.90388 -29.5,-26.11021 -10.5,-16.20634 -10.5,-36.01408 v -286.31195 q 0,-19.80774 10.5,-36.01408 10.5,-16.20634 29.5,-26.11021 L 440,-870.09613 Q 459,-880 480,-880 q 21,0 40,9.90387 l 280,144.95668 q 19,9.90387 29.5,26.11021 10.5,16.20634 10.5,36.01408 v 286.31195 q 0,19.80774 -10.5,36.01408 -10.5,16.20633 -29.5,26.11021 l -280,144.95667 q -19,9.90388 -40,9.90388 -21,0 -40,-9.90388 z m 320,-205.28027 z"
     id="path2288"
     style="fill:#9bb1ff;fill-opacity:1;stroke-width:0.948869"
     inkscape:export-filename="C:\Users\ammoussaoui\modeliosaas\5.4\ws\ToscaDesigner\ToscaDesigner\src\main\conf\res\icon\gui\svg\deploymentArtifact48.png"
     inkscape:export-xdpi="255.89992"
     inkscape:export-ydpi="255.89992" />
</svg>
