<?xml version="1.0" encoding="UTF-8" standalone="no"?>
<!-- Created with Inkscape (http://www.inkscape.org/) -->

<svg
   width="210mm"
   height="297mm"
   viewBox="0 0 210 297"
   version="1.1"
   id="svg5"
   inkscape:version="1.1.1 (3bf5ae0d25, 2021-09-20)"
   sodipodi:docname="node_template.svg"
   xmlns:inkscape="http://www.inkscape.org/namespaces/inkscape"
   xmlns:sodipodi="http://sodipodi.sourceforge.net/DTD/sodipodi-0.dtd"
   xmlns="http://www.w3.org/2000/svg"
   xmlns:svg="http://www.w3.org/2000/svg">
  <sodipodi:namedview
     id="namedview7"
     pagecolor="#ffffff"
     bordercolor="#666666"
     borderopacity="1.0"
     inkscape:pageshadow="2"
     inkscape:pageopacity="0.0"
     inkscape:pagecheckerboard="0"
     inkscape:document-units="mm"
     showgrid="false"
     inkscape:zoom="0.64052329"
     inkscape:cx="396.55076"
     inkscape:cy="561.25984"
     inkscape:window-width="1920"
     inkscape:window-height="1001"
     inkscape:window-x="-9"
     inkscape:window-y="1341"
     inkscape:window-maximized="1"
     inkscape:current-layer="layer1" />
  <defs
     id="defs2" />
  <g
     inkscape:label="Calque 1"
     inkscape:groupmode="layer"
     id="layer1">
    <g
       style="clip-rule:evenodd;fill:#bfd7ff;fill-opacity:1;fill-rule:evenodd;stroke-linejoin:round;stroke-miterlimit:2"
       id="g30067"
       transform="matrix(0.28215621,0,0,0.26407326,36.472113,77.875203)"
       inkscape:export-filename="C:\Users\ammoussaoui\modeliosaas\5.4\ws\ToscaDesigner\modules\MYRTHUS-DESIGNER\ToscaDesigner\src\main\conf\res\icon\gui\node_template24.png"
       inkscape:export-xdpi="4.1270671"
       inkscape:export-ydpi="4.1270671">
      <g
         id="_42-Template"
         style="display:inline;fill:#bfd7ff;fill-opacity:1"
         transform="translate(-2048,-8192)">
        <g
           id="g1900"
           transform="translate(2118.61,8222)"
           style="fill:#bfd7ff;fill-opacity:1">
          <path
             d="M 0,452.002 V 0 h 259.03 v 20.581 h -42.84 c -8.284,0 -15,6.716 -15,15 v 221.845 c 0,8.284 6.716,15 15,15 h 115.67 c 8.284,0 15,-6.716 15,-15 V 123.995 h 23.93 V 452.002 Z M 289.03,93.995 V 24.047 l 63.046,69.948 z m -15,30 h 42.83 V 242.426 H 231.19 V 50.581 h 27.84 v 58.414 c 0,8.284 6.716,15 15,15 M 396.931,98.952 285.171,-25.043 C 282.328,-28.198 278.278,-30 274.03,-30 H -15 c -8.284,0 -15,6.716 -15,15 v 482.002 c 0,8.284 6.716,15 15,15 h 400.79 c 8.284,0 15,-6.716 15,-15 V 108.995 c 0,-3.709 -1.374,-7.287 -3.859,-10.043"
             id="path1898"
             style="fill:#bfd7ff;fill-opacity:1;fill-rule:nonzero" />
        </g>
        <g
           id="g1904"
           transform="translate(0,7327.05)"
           style="fill:#bfd7ff;fill-opacity:1">
          <path
             d="m 2258.2,1296.37 h -85.67 v -191.84 h 85.67 z m 15,-221.84 h -115.67 c -8.28,0 -15,6.71 -15,15 v 221.84 c 0,8.29 6.72,15 15,15 h 115.67 c 8.28,0 15,-6.71 15,-15 v -221.84 c 0,-8.29 -6.72,-15 -15,-15"
             id="path1902"
             style="fill:#bfd7ff;fill-opacity:1;fill-rule:nonzero" />
        </g>
        <g
           id="g1908"
           transform="translate(0,6884.04)"
           style="fill:#bfd7ff;fill-opacity:1">
          <path
             d="m 2258.2,1455.37 h -85.67 v -66.83 h 85.67 z m 15,-96.83 h -115.67 c -8.28,0 -15,6.71 -15,15 v 96.83 c 0,8.28 6.72,15 15,15 h 115.67 c 8.28,0 15,-6.72 15,-15 v -96.83 c 0,-8.29 -6.72,-15 -15,-15"
             id="path1906"
             style="fill:#bfd7ff;fill-opacity:1;fill-rule:nonzero" />
        </g>
        <g
           id="g1912"
           transform="translate(0,7452.06)"
           style="fill:#bfd7ff;fill-opacity:1">
          <path
             d="m 2435.46,1171.36 h -85.66 v -66.83 h 85.66 z m 15,-96.83 H 2334.8 c -8.29,0 -15,6.71 -15,15 v 96.83 c 0,8.28 6.71,15 15,15 h 115.66 c 8.28,0 15,-6.72 15,-15 v -96.83 c 0,-8.29 -6.72,-15 -15,-15"
             id="path1910"
             style="fill:#bfd7ff;fill-opacity:1;fill-rule:nonzero" />
        </g>
      </g>
    </g>
    <path
       d="m 131.5466,223.58224 q -5.79312,0 -9.88834,-3.49128 -4.09522,-3.4914 -4.09522,-8.43046 0,-4.93895 4.09522,-8.43036 4.09522,-3.4914 9.88834,-3.4914 1.79786,0 3.4959,0.38366 1.69804,0.38364 3.19629,1.06466 l 15.28205,-13.02877 v -9.36718 q -4.39482,-1.10716 -7.19156,-4.21518 -2.79675,-3.10814 -2.79675,-7.19559 0,-4.93909 4.09522,-8.43048 4.09523,-3.49128 9.88834,-3.49128 5.79326,0 9.88849,3.49128 4.09507,3.49139 4.09507,8.43048 0,4.08745 -2.79658,7.19559 -2.79674,3.10815 -7.19156,4.21518 v 9.36718 l 15.38185,13.02877 q 1.49797,-0.68102 3.14632,-1.06466 1.64806,-0.38366 3.44592,-0.38366 5.79326,0 9.88849,3.4914 4.09522,3.49141 4.09522,8.43036 0,4.93906 -4.09522,8.43046 -4.09523,3.49128 -9.88849,3.49128 -5.79312,0 -9.88834,-3.49128 -4.09523,-3.4914 -4.09523,-8.43046 0,-1.53277 0.45,-2.98044 0.44999,-1.44768 1.2488,-2.72501 l -13.68398,-11.6662 -13.68382,11.6662 q 0.79882,1.27709 1.24881,2.72501 0.44999,1.44767 0.44999,2.98044 0,4.93906 -4.09507,8.43046 -4.09523,3.49128 -9.88849,3.49128 z m 51.939,-6.81236 q 2.49714,0 4.24501,-1.49027 1.74803,-1.49016 1.74803,-3.61911 0,-2.12883 -1.74803,-3.61913 -1.74787,-1.49014 -4.24501,-1.49014 -2.49701,0 -4.24488,1.49014 -1.74801,1.4903 -1.74801,3.61913 0,2.12895 1.74801,3.61911 1.74787,1.49027 4.24488,1.49027 z m -25.96951,-44.28094 q 2.49716,0 4.24503,-1.49015 1.74802,-1.49027 1.74802,-3.6191 0,-2.12895 -1.74802,-3.61913 -1.74787,-1.49027 -4.24503,-1.49027 -2.49699,0 -4.24501,1.49027 -1.74788,1.49018 -1.74788,3.61913 0,2.12883 1.74788,3.6191 1.74802,1.49015 4.24501,1.49015 z m -25.96949,44.28094 q 2.49716,0 4.24502,-1.49027 1.74802,-1.49016 1.74802,-3.61911 0,-2.12883 -1.74802,-3.61913 -1.74786,-1.49014 -4.24502,-1.49014 -2.49701,0 -4.24501,1.49014 -1.74787,1.4903 -1.74787,3.61913 0,2.12895 1.74787,3.61911 1.748,1.49027 4.24501,1.49027 z"
       id="path72440"
       style="fill:#5465ff;fill-opacity:1;stroke-width:0.092225"
       inkscape:export-filename="C:\Users\ammoussaoui\modeliosaas\5.4\ws\ToscaDesigner\modules\MYRTHUS-DESIGNER\ToscaDesigner\src\main\conf\res\icon\gui\node_template24.png"
       inkscape:export-xdpi="4.1270671"
       inkscape:export-ydpi="4.1270671" />
  </g>
</svg>
