<?xml version="1.0" encoding="UTF-8" standalone="no"?>
<!-- Created with Inkscape (http://www.inkscape.org/) -->

<svg
   width="210mm"
   height="297mm"
   viewBox="0 0 210 297"
   version="1.1"
   id="svg5"
   inkscape:version="1.1.1 (3bf5ae0d25, 2021-09-20)"
   sodipodi:docname="service_template.svg"
   xmlns:inkscape="http://www.inkscape.org/namespaces/inkscape"
   xmlns:sodipodi="http://sodipodi.sourceforge.net/DTD/sodipodi-0.dtd"
   xmlns="http://www.w3.org/2000/svg"
   xmlns:svg="http://www.w3.org/2000/svg">
  <sodipodi:namedview
     id="namedview7"
     pagecolor="#ffffff"
     bordercolor="#666666"
     borderopacity="1.0"
     inkscape:pageshadow="2"
     inkscape:pageopacity="0.0"
     inkscape:pagecheckerboard="0"
     inkscape:document-units="mm"
     showgrid="false"
     inkscape:zoom="0.64052329"
     inkscape:cx="396.55076"
     inkscape:cy="561.25984"
     inkscape:window-width="1920"
     inkscape:window-height="1001"
     inkscape:window-x="-9"
     inkscape:window-y="1341"
     inkscape:window-maximized="1"
     inkscape:current-layer="layer1" />
  <defs
     id="defs2" />
  <g
     inkscape:label="Calque 1"
     inkscape:groupmode="layer"
     id="layer1">
    <g
       style="clip-rule:evenodd;fill:#f55536;fill-opacity:1;fill-rule:evenodd;stroke-linejoin:round;stroke-miterlimit:2"
       id="g30067"
       transform="matrix(0.25691233,0,0,0.26861724,37.497587,80.766403)">
      <g
         id="_42-Template"
         style="display:inline;fill:#f55536;fill-opacity:1"
         transform="translate(-2048,-8192)">
        <g
           id="g1900"
           transform="translate(2118.61,8222)"
           style="fill:#f55536;fill-opacity:1">
          <path
             d="M 0,452.002 V 0 h 259.03 v 20.581 h -42.84 c -8.284,0 -15,6.716 -15,15 v 221.845 c 0,8.284 6.716,15 15,15 h 115.67 c 8.284,0 15,-6.716 15,-15 V 123.995 h 23.93 V 452.002 Z M 289.03,93.995 V 24.047 l 63.046,69.948 z m -15,30 h 42.83 V 242.426 H 231.19 V 50.581 h 27.84 v 58.414 c 0,8.284 6.716,15 15,15 M 396.931,98.952 285.171,-25.043 C 282.328,-28.198 278.278,-30 274.03,-30 H -15 c -8.284,0 -15,6.716 -15,15 v 482.002 c 0,8.284 6.716,15 15,15 h 400.79 c 8.284,0 15,-6.716 15,-15 V 108.995 c 0,-3.709 -1.374,-7.287 -3.859,-10.043"
             id="path1898"
             style="fill:#f55536;fill-opacity:1;fill-rule:nonzero" />
        </g>
        <g
           id="g1904"
           transform="translate(0,7327.05)"
           style="fill:#f55536;fill-opacity:1">
          <path
             d="m 2258.2,1296.37 h -85.67 v -191.84 h 85.67 z m 15,-221.84 h -115.67 c -8.28,0 -15,6.71 -15,15 v 221.84 c 0,8.29 6.72,15 15,15 h 115.67 c 8.28,0 15,-6.71 15,-15 v -221.84 c 0,-8.29 -6.72,-15 -15,-15"
             id="path1902"
             style="fill:#f55536;fill-opacity:1;fill-rule:nonzero" />
        </g>
        <g
           id="g1908"
           transform="translate(0,6884.04)"
           style="fill:#f55536;fill-opacity:1">
          <path
             d="m 2258.2,1455.37 h -85.67 v -66.83 h 85.67 z m 15,-96.83 h -115.67 c -8.28,0 -15,6.71 -15,15 v 96.83 c 0,8.28 6.72,15 15,15 h 115.67 c 8.28,0 15,-6.72 15,-15 v -96.83 c 0,-8.29 -6.72,-15 -15,-15"
             id="path1906"
             style="fill:#f55536;fill-opacity:1;fill-rule:nonzero" />
        </g>
        <g
           id="g1912"
           transform="translate(0,7452.06)"
           style="fill:#f55536;fill-opacity:1">
          <path
             d="m 2435.46,1171.36 h -85.66 v -66.83 h 85.66 z m 15,-96.83 H 2334.8 c -8.29,0 -15,6.71 -15,15 v 96.83 c 0,8.28 6.71,15 15,15 h 115.66 c 8.28,0 15,-6.72 15,-15 v -96.83 c 0,-8.29 -6.72,-15 -15,-15"
             id="path1910"
             style="fill:#f55536;fill-opacity:1;fill-rule:nonzero" />
        </g>
      </g>
    </g>
    <path
       d="m 136.15602,228.50191 -1.44709,-12.56695 q -1.17595,-0.49131 -2.21599,-1.17854 -1.04058,-0.68721 -2.03507,-1.47242 l -10.76319,4.90902 -9.94905,-18.6542 9.31596,-7.65809 q -0.0957,-0.68722 -0.0957,-1.32547 v -2.65096 q 0,-0.63824 0.0957,-1.32547 l -9.31596,-7.65809 9.94905,-18.6542 10.76319,4.909 q 0.99546,-0.78518 2.08033,-1.47241 1.08572,-0.68724 2.17073,-1.17854 l 1.44709,-12.56695 h 19.89826 l 1.44709,12.56695 q 1.17595,0.4913 2.21597,1.17854 1.04058,0.68723 2.03508,1.47241 l 10.76305,-4.909 9.9492,18.6542 -9.3161,7.65809 q 0.0957,0.68723 0.0957,1.32547 v 2.65096 q 0,0.63825 -0.1805,1.32547 l 9.3161,7.65809 -9.94906,18.6542 -10.67267,-4.90902 q -0.99545,0.78521 -2.08032,1.47242 -1.08571,0.68723 -2.17072,1.17854 l -1.4471,12.56695 z m 6.33125,-7.8543 h 7.14523 l 1.26619,-10.40716 q 2.80382,-0.7852 5.20057,-2.30719 2.39688,-1.52185 4.38669,-3.6818 l 8.95428,4.02541 3.5273,-6.67622 -7.77834,-6.38174 q 0.4526,-1.37445 0.6331,-2.8963 0.18049,-1.52186 0.18049,-3.09268 0,-1.57084 -0.18049,-3.09269 -0.1805,-1.52185 -0.6331,-2.8963 l 7.77834,-6.38175 -3.5273,-6.67622 -8.95428,4.12354 q -1.98981,-2.25808 -4.38669,-3.77992 -2.39675,-1.5217 -5.20057,-2.30719 l -1.17594,-10.40716 h -7.14538 l -1.26619,10.40716 q -2.80381,0.78519 -5.20069,2.30719 -2.39674,1.52184 -4.3867,3.6818 l -8.95414,-4.02542 -3.52744,6.67622 7.77848,6.28364 q -0.4526,1.47241 -0.6331,2.94529 -0.18049,1.47242 -0.18049,3.14181 0,1.57082 0.18049,3.04354 0.1805,1.47243 0.6331,2.94544 l -7.77848,6.38174 3.52744,6.67622 8.95414,-4.12353 q 1.98996,2.25807 4.3867,3.77992 2.39688,1.52171 5.20069,2.30719 z m 3.79871,-17.67249 q 5.24596,0 8.9543,-4.02542 3.70818,-4.02526 3.70818,-9.71977 0,-5.69452 -3.70818,-9.71977 -3.70834,-4.02544 -8.9543,-4.02544 -5.33633,0 -8.99941,4.02544 -3.66307,4.02525 -3.66307,9.71977 0,5.69451 3.66307,9.71977 3.66308,4.02542 8.99941,4.02542 z m -0.1809,-13.74519 z"
       id="path1008"
       style="fill:#fabc3c;fill-opacity:1;stroke-width:0.0942345" />
  </g>
</svg>
