<?xml version="1.0" encoding="UTF-8" standalone="no"?>
<!-- Created with Inkscape (http://www.inkscape.org/) -->

<svg
   width="210mm"
   height="297mm"
   viewBox="0 0 210 297"
   version="1.1"
   id="svg5"
   inkscape:version="1.1.1 (3bf5ae0d25, 2021-09-20)"
   sodipodi:docname="topology_template.svg"
   xmlns:inkscape="http://www.inkscape.org/namespaces/inkscape"
   xmlns:sodipodi="http://sodipodi.sourceforge.net/DTD/sodipodi-0.dtd"
   xmlns="http://www.w3.org/2000/svg"
   xmlns:svg="http://www.w3.org/2000/svg">
  <sodipodi:namedview
     id="namedview7"
     pagecolor="#ffffff"
     bordercolor="#666666"
     borderopacity="1.0"
     inkscape:pageshadow="2"
     inkscape:pageopacity="0.0"
     inkscape:pagecheckerboard="0"
     inkscape:document-units="mm"
     showgrid="false"
     inkscape:zoom="0.64052329"
     inkscape:cx="396.55076"
     inkscape:cy="561.25984"
     inkscape:window-width="1920"
     inkscape:window-height="1001"
     inkscape:window-x="-9"
     inkscape:window-y="1341"
     inkscape:window-maximized="1"
     inkscape:current-layer="layer1" />
  <defs
     id="defs2" />
  <g
     inkscape:label="Calque 1"
     inkscape:groupmode="layer"
     id="layer1">
    <g
       style="clip-rule:evenodd;fill:#bfd7ff;fill-opacity:1;fill-rule:evenodd;stroke-linejoin:round;stroke-miterlimit:2"
       id="g30067"
       transform="matrix(0.28215621,0,0,0.26350998,36.472113,77.875203)"
       inkscape:export-filename="C:\Users\ammoussaoui\modeliosaas\5.4\ws\ToscaDesigner\modules\MYRTHUS-DESIGNER\ToscaDesigner\src\main\conf\res\icon\gui\topology_template24.png"
       inkscape:export-xdpi="4.1270671"
       inkscape:export-ydpi="4.1270671">
      <g
         id="_42-Template"
         style="display:inline;fill:#bfd7ff;fill-opacity:1"
         transform="translate(-2048,-8192)">
        <g
           id="g1900"
           transform="translate(2118.61,8222)"
           style="fill:#bfd7ff;fill-opacity:1">
          <path
             d="M 0,452.002 V 0 h 259.03 v 20.581 h -42.84 c -8.284,0 -15,6.716 -15,15 v 221.845 c 0,8.284 6.716,15 15,15 h 115.67 c 8.284,0 15,-6.716 15,-15 V 123.995 h 23.93 V 452.002 Z M 289.03,93.995 V 24.047 l 63.046,69.948 z m -15,30 h 42.83 V 242.426 H 231.19 V 50.581 h 27.84 v 58.414 c 0,8.284 6.716,15 15,15 M 396.931,98.952 285.171,-25.043 C 282.328,-28.198 278.278,-30 274.03,-30 H -15 c -8.284,0 -15,6.716 -15,15 v 482.002 c 0,8.284 6.716,15 15,15 h 400.79 c 8.284,0 15,-6.716 15,-15 V 108.995 c 0,-3.709 -1.374,-7.287 -3.859,-10.043"
             id="path1898"
             style="fill:#bfd7ff;fill-opacity:1;fill-rule:nonzero" />
        </g>
        <g
           id="g1904"
           transform="translate(0,7327.05)"
           style="fill:#bfd7ff;fill-opacity:1">
          <path
             d="m 2258.2,1296.37 h -85.67 v -191.84 h 85.67 z m 15,-221.84 h -115.67 c -8.28,0 -15,6.71 -15,15 v 221.84 c 0,8.29 6.72,15 15,15 h 115.67 c 8.28,0 15,-6.71 15,-15 v -221.84 c 0,-8.29 -6.72,-15 -15,-15"
             id="path1902"
             style="fill:#bfd7ff;fill-opacity:1;fill-rule:nonzero" />
        </g>
        <g
           id="g1908"
           transform="translate(0,6884.04)"
           style="fill:#bfd7ff;fill-opacity:1">
          <path
             d="m 2258.2,1455.37 h -85.67 v -66.83 h 85.67 z m 15,-96.83 h -115.67 c -8.28,0 -15,6.71 -15,15 v 96.83 c 0,8.28 6.72,15 15,15 h 115.67 c 8.28,0 15,-6.72 15,-15 v -96.83 c 0,-8.29 -6.72,-15 -15,-15"
             id="path1906"
             style="fill:#bfd7ff;fill-opacity:1;fill-rule:nonzero" />
        </g>
        <g
           id="g1912"
           transform="translate(0,7452.06)"
           style="fill:#bfd7ff;fill-opacity:1">
          <path
             d="m 2435.46,1171.36 h -85.66 v -66.83 h 85.66 z m 15,-96.83 H 2334.8 c -8.29,0 -15,6.71 -15,15 v 96.83 c 0,8.28 6.71,15 15,15 h 115.66 c 8.28,0 15,-6.72 15,-15 v -96.83 c 0,-8.29 -6.72,-15 -15,-15"
             id="path1910"
             style="fill:#bfd7ff;fill-opacity:1;fill-rule:nonzero" />
        </g>
      </g>
    </g>
    <path
       d="m 125.2925,226.07468 q -4.88196,0 -8.29931,-3.0559 -3.41736,-3.05589 -3.41736,-7.42148 0,-4.36559 3.41736,-7.4215 3.41735,-3.0559 8.29931,-3.0559 1.36688,0 2.53862,0.26136 1.17204,0.26136 2.24577,0.69827 l 5.56541,-6.19918 q -2.73392,-2.70663 -3.80795,-6.1118 -1.07461,-3.40517 -0.48859,-6.81021 l -7.90874,-2.35749 q -1.65989,2.18286 -4.19851,3.49243 -2.53863,1.30941 -5.66313,1.30941 -4.88195,0 -8.29937,-3.05589 -3.41735,-3.0559 -3.41735,-7.42149 0,-4.36559 3.41735,-7.42149 3.41742,-3.05591 8.29937,-3.05591 4.88197,0 8.29932,3.05591 3.41736,3.0559 3.41736,7.42149 v 0.69826 l 7.90874,2.44475 q 1.95289,-3.14328 5.22368,-5.32601 3.27092,-2.18286 7.37188,-2.79401 v -7.59613 q -3.80794,-0.96095 -6.29772,-3.71074 -2.4899,-2.75032 -2.4899,-6.41738 0,-4.36559 3.41736,-7.42149 3.41735,-3.0559 8.29931,-3.0559 4.88196,0 8.29931,3.0559 3.41737,3.0559 3.41737,7.42149 0,3.66706 -2.53863,6.41738 -2.53863,2.75033 -6.24884,3.71074 v 7.59613 q 4.1008,0.61115 7.37172,2.79401 3.27093,2.18273 5.22368,5.32601 l 7.90874,-2.44475 v -0.69826 q 0,-4.36559 3.41736,-7.42149 3.41735,-3.05591 8.29933,-3.05591 4.88195,0 8.29931,3.05591 3.41735,3.0559 3.41735,7.42149 0,4.36559 -3.41735,7.42149 -3.41736,3.05589 -8.29931,3.05589 -3.12435,0 -5.71185,-1.30941 -2.58748,-1.30943 -4.14965,-3.49243 l -7.90875,2.35737 q 0.58604,3.40516 -0.48858,6.76664 -1.07462,3.36161 -3.80794,6.15549 l 5.5654,6.1118 q 1.07461,-0.43692 2.24562,-0.65471 1.17202,-0.2178 2.53862,-0.2178 4.88196,0 8.29931,3.0559 3.41737,3.05589 3.41737,7.42148 0,4.3656 -3.41737,7.4215 -3.41735,3.0559 -8.29931,3.0559 -4.88196,0 -8.29932,-3.0559 -3.41735,-3.0559 -3.41735,-7.4215 0,-1.7462 0.63473,-3.36147 0.63472,-1.61527 1.70859,-2.92496 l -5.56539,-6.19917 q -4.00324,2.00822 -8.54333,2.00822 -4.54023,0 -8.54346,-2.00822 l -5.46783,6.19917 q 1.0746,1.30943 1.70875,2.92496 0.63473,1.61527 0.63473,3.36147 0,4.3656 -3.41735,7.4215 -3.41736,3.0559 -8.29933,3.0559 z m -11.71667,-43.65577 q 1.65989,0 2.78277,-1.00451 1.12333,-1.0045 1.12333,-2.48843 0,-1.4842 -1.12333,-2.48831 -1.12333,-1.0045 -2.78277,-1.0045 -1.65974,0 -2.78264,1.0045 -1.12332,1.00451 -1.12332,2.48831 0,1.48432 1.12332,2.48843 1.12334,1.00451 2.78264,1.00451 z m 11.71667,36.67081 q 1.65989,0 2.78278,-1.00451 1.12332,-1.00452 1.12332,-2.48831 0,-1.48432 -1.12332,-2.48844 -1.12333,-1.00451 -2.78278,-1.00451 -1.65975,0 -2.78262,1.00451 -1.12333,1.00452 -1.12333,2.48844 0,1.48433 1.12333,2.48831 1.12331,1.00451 2.78262,1.00451 z m 23.43336,-59.3718 q 1.65989,0 2.78277,-1.00451 1.12333,-1.0045 1.12333,-2.48843 0,-1.48432 -1.12333,-2.48832 -1.12333,-1.00449 -2.78277,-1.00449 -1.65975,0 -2.78264,1.00449 -1.12331,1.00452 -1.12331,2.48832 0,1.48432 1.12331,2.48843 1.12333,1.00451 2.78264,1.00451 z m 0,38.41701 q 4.10094,0 6.93242,-2.53199 2.83149,-2.532 2.83149,-6.19919 0,-3.66706 -2.83149,-6.19905 -2.83148,-2.53213 -6.93242,-2.53213 -4.10081,0 -6.9323,2.53213 -2.83162,2.53199 -2.83162,6.19905 0,3.66719 2.83162,6.19919 2.83149,2.53199 6.9323,2.53199 z m 23.43334,20.95479 q 1.65989,0 2.78278,-1.00451 1.12333,-1.00452 1.12333,-2.48831 0,-1.48432 -1.12333,-2.48844 -1.12333,-1.00451 -2.78278,-1.00451 -1.65974,0 -2.78262,1.00451 -1.12332,1.00452 -1.12332,2.48844 0,1.48433 1.12332,2.48831 1.12332,1.00451 2.78262,1.00451 z m 11.71669,-36.67081 q 1.65989,0 2.78276,-1.00451 1.12333,-1.0045 1.12333,-2.48843 0,-1.4842 -1.12333,-2.48831 -1.12331,-1.0045 -2.78276,-1.0045 -1.65975,0 -2.78264,1.0045 -1.12332,1.00451 -1.12332,2.48831 0,1.48432 1.12332,2.48843 1.12333,1.00451 2.78264,1.00451 z m -35.15003,-26.19353 z m -35.15003,22.70098 z m 35.15003,10.47739 z m 35.15003,-10.47739 z M 125.2925,215.5973 Z m 46.8667,0 z"
       id="path55569"
       style="fill:#5465ff;fill-opacity:1;stroke:#546595;stroke-width:0.092331;stroke-opacity:1"
       inkscape:export-filename="C:\Users\ammoussaoui\modeliosaas\5.4\ws\ToscaDesigner\modules\MYRTHUS-DESIGNER\ToscaDesigner\src\main\conf\res\icon\gui\topology_template24.png"
       inkscape:export-xdpi="4.1270671"
       inkscape:export-ydpi="4.1270671" />
  </g>
</svg>
